#!OML:ASF H:\LiuWeirdWalks\Patient Classification 1\Patient 1\Session 1\male.ASF
:FULLY-SPECIFIED
:DEGREES
1070
root 1.84802 17.892 21.8449 3.14121 -8.98529 7.13884
lowerback 18.169 -0.200431 12.6513
upperback 2.06957 3.04818 10.0215
thorax -7.90945 1.20318 3.11546
lowerneck -19.148 2.46555 11.0298
upperneck 15.3224 4.91057 -23.3795
head 8.94912 0.679289 -9.56662
rclavicle -9.54166e-015 -6.04305e-014
rhumerus -23.2702 -52.1095 -0.862748
rradius 23.4174
rwrist 11.6641
rhand -17.0504 7.10729
rfingers 7.12502
rthumb 9.18668 -22.6726
lclavicle -9.54166e-015 -6.04305e-014
lhumerus -18.0759 9.73875 0.237644
lradius 32.1034
lwrist 28.5036
lhand -21.9275 0.553727
lfingers 7.12502
lthumb 4.47877 30.4864
rfemur -6.77213 5.09382 6.45427
rtibia 35.7279
rfoot -16.716 -16.3514
rtoes -14.3372
lfemur -28.5309 5.84847 -22.7302
ltibia 24.1996
lfoot -7.51061 12.6869
ltoes -18.0703
1071
root 1.87922 17.8844 21.9217 3.19004 -9.17045 6.75224
lowerback 18.114 -0.206509 12.7619
upperback 2.16236 3.02915 9.97864
thorax -7.76638 1.196 3.00863
lowerneck -19.2646 2.57171 11.1641
upperneck 15.1833 4.99527 -23.3922
head 8.94627 0.724981 -9.57982
rclavicle -4.77083e-015 6.99722e-014
rhumerus -23.0838 -52.2763 -0.954944
rradius 23.5161
rwrist 11.6428
rhand -17.1889 7.19418
rfingers 7.12502
rthumb 9.05308 -22.5915
lclavicle -4.77083e-015 6.99722e-014
lhumerus -18.3861 10.1644 0.294009
lradius 32.4734
lwrist 29.1772
lhand -22.362 0.5241
lfingers 7.12502
lthumb 4.05922 30.4652
rfemur -6.41696 5.08043 6.69437
rtibia 35.4053
rfoot -16.6332 -16.1105
rtoes -14.5829
lfemur -28.6625 5.58394 -22.1895
ltibia 23.8019
lfoot -7.47026 12.9236
ltoes -18.0544
1072
root 1.91073 17.8755 21.9999 3.22882 -9.32933 6.3968
lowerback 18.0633 -0.18483 12.9246
upperback 2.24639 3.0552 9.89347
thorax -7.62842 1.20794 2.81565
lowerneck -19.4885 2.60047 11.1484
upperneck 15.1725 4.99675 -23.2545
head 8.97902 0.72495 -9.52563
rclavicle -5.24792e-014 -2.22639e-014
rhumerus -23.1489 -52.3982 -0.796728
rradius 23.6535
rwrist 11.5279
rhand -17.3526 7.25964
rfingers 7.12502
rthumb 8.89511 -22.5329
lclavicle -5.24792e-014 -2.22639e-014
lhumerus -18.4047 10.2438 0.400583
lradius 32.4928
lwrist 29.4523
lhand -22.4393 0.567766
lfingers 7.12502
lthumb 3.98456 30.5103
rfemur -6.05534 5.02704 6.88589
rtibia 35.1095
rfoot -16.5477 -15.8249
rtoes -14.8587
lfemur -28.7632 5.28117 -21.6796
ltibia 23.4272
lfoot -7.45346 13.1719
ltoes -18.0137
1073
root 1.94228 17.8656 22.0789 3.25846 -9.46812 6.04637
lowerback 17.9991 -0.159581 13.1038
upperback 2.35334 3.08046 9.78603
thorax -7.45467 1.22115 2.58891
lowerneck -19.8034 2.62437 11.119
upperneck 15.2103 4.98848 -23.0721
head 9.04076 0.717132 -9.45779
rclavicle -7.95139e-015 5.08889e-014
rhumerus -23.3079 -52.5868 -0.552688
rradius 23.8107
rwrist 11.4188
rhand -17.5058 7.32603
rfingers 7.12502
rthumb 8.74725 -22.4727
lclavicle -7.95139e-015 5.08889e-014
lhumerus -18.3439 10.3455 0.538352
lradius 32.5031
lwrist 29.8032
lhand -22.5478 0.640772
lfingers 7.12502
lthumb 3.87983 30.5852
rfemur -5.69386 4.96141 7.06733
rtibia 34.8453
rfoot -16.4575 -15.5235
rtoes -15.1538
lfemur -28.8362 4.95634 -21.1735
ltibia 23.0786
lfoot -7.45064 13.4265
ltoes -17.9557
1074
root 1.9738 17.8544 22.1597 3.27737 -9.59915 5.66287
lowerback 18.0378 -0.156521 13.1054
upperback 2.34403 3.09254 9.77445
thorax -7.48511 1.22471 2.57264
lowerneck -19.7884 2.64878 11.1291
upperneck 15.2362 5.00371 -22.9629
head 9.04443 0.734978 -9.41488
rclavicle -5.88403e-014 -1.08139e-013
rhumerus -23.1905 -52.4786 -0.4635
rradius 23.9628
rwrist 11.2595
rhand -17.6215 7.33682
rfingers 7.12502
rthumb 8.63564 -22.4666
lclavicle -5.88403e-014 -1.08139e-013
lhumerus -18.5027 10.4425 0.688082
lradius 32.6106
lwrist 30.1055
lhand -22.6889 0.673867
lfingers 7.12502
lthumb 3.7435 30.6207
rfemur -5.32583 4.89824 7.2831
rtibia 34.6149
rfoot -16.3657 -15.2158
rtoes -15.4591
lfemur -28.8659 4.6252 -20.6321
ltibia 22.757
lfoot -7.46179 13.7015
ltoes -17.9129
1075
root 2.00555 17.842 22.2424 3.29091 -9.70564 5.28116
lowerback 18.071 -0.132874 13.1647
upperback 2.32374 3.14124 9.73682
thorax -7.5182 1.24324 2.48747
lowerneck -19.8105 2.62958 11.0887
upperneck 15.3228 4.96775 -22.7981
head 9.0613 0.726624 -9.35187
rclavicle 6.36111e-015 -6.36111e-014
rhumerus -23.2973 -52.3694 -0.14953
rradius 24.1206
rwrist 11.1309
rhand -17.6965 7.37816
rfingers 7.12502
rthumb 8.56327 -22.4282
lclavicle 6.36111e-015 -6.36111e-014
lhumerus -18.465 10.3177 0.885033
lradius 32.5385
lwrist 30.1776
lhand -22.649 0.729621
lfingers 7.12502
lthumb 3.78209 30.6758
rfemur -4.95791 4.81131 7.49237
rtibia 34.4199
rfoot -16.28 -14.8981
rtoes -15.768
lfemur -28.8663 4.27771 -20.1014
ltibia 22.4647
lfoot -7.49065 14.0021
ltoes -17.869
1076
root 2.03782 17.828 22.3272 3.30168 -9.77939 4.91717
lowerback 18.0806 -0.132464 13.1363
upperback 2.3014 3.14004 9.71448
thorax -7.54864 1.24124 2.47875
lowerneck -19.7671 2.64644 11.1309
upperneck 15.3568 4.96596 -22.6903
head 9.0595 0.739789 -9.31797
rclavicle -2.8625e-014 -1.90833e-014
rhumerus -23.2661 -52.3248 0.0702562
rradius 24.2314
rwrist 11.1077
rhand -17.7443 7.42857
rfingers 7.12502
rthumb 8.51713 -22.3797
lclavicle -2.8625e-014 -1.90833e-014
lhumerus -18.5344 10.4533 1.06831
lradius 32.5893
lwrist 30.3257
lhand -22.7551 0.74758
lfingers 7.12502
lthumb 3.67962 30.6956
rfemur -4.59094 4.67694 7.67323
rtibia 34.2607
rfoot -16.2 -14.5665
rtoes -16.085
lfemur -28.8407 3.92385 -19.6116
ltibia 22.2007
lfoot -7.51246 14.3126
ltoes -17.8704
1077
root 2.07077 17.8128 22.4148 3.30255 -9.83156 4.58009
lowerback 18.0598 -0.127795 13.0931
upperback 2.27823 3.13435 9.67645
thorax -7.56311 1.23815 2.46148
lowerneck -19.7082 2.6482 11.1721
upperneck 15.389 4.94121 -22.5718
head 9.04897 0.743965 -9.28216
rclavicle -2.8625e-014 -7.95139e-014
rhumerus -23.3102 -52.3186 0.377548
rradius 24.3134
rwrist 11.1861
rhand -17.7418 7.47026
rfingers 7.12502
rthumb 8.51953 -22.3379
lclavicle -2.8625e-014 -7.95139e-014
lhumerus -18.5454 10.5535 1.27016
lradius 32.6169
lwrist 30.4743
lhand -22.8718 0.766756
lfingers 7.12502
lthumb 3.56687 30.7167
rfemur -4.22162 4.50099 7.8136
rtibia 34.1425
rfoot -16.1344 -14.215
rtoes -16.4108
lfemur -28.7763 3.57674 -19.1778
ltibia 21.9606
lfoot -7.5184 14.6409
ltoes -17.9031
1078
root 2.10409 17.796 22.5049 3.29643 -9.8568 4.28163
lowerback 18.0045 -0.138842 12.9406
upperback 2.25479 3.08171 9.65156
thorax -7.56765 1.21703 2.52923
lowerneck -19.6151 2.67771 11.2686
upperneck 15.3955 4.94698 -22.4969
head 9.03274 0.7647 -9.26783
rclavicle -2.06736e-014 1.90833e-014
rhumerus -23.2171 -52.325 0.577843
rradius 24.3544
rwrist 11.2956
rhand -17.7394 7.50819
rfingers 7.12502
rthumb 8.52179 -22.2999
lclavicle -2.06736e-014 1.90833e-014
lhumerus -18.6631 10.7471 1.44888
lradius 32.7522
lwrist 30.6475
lhand -23.0361 0.761618
lfingers 7.12502
lthumb 3.40819 30.7141
rfemur -3.85163 4.28038 7.90218
rtibia 34.0618
rfoot -16.0832 -13.8514
rtoes -16.7462
lfemur -28.6853 3.24996 -18.8213
ltibia 21.7553
lfoot -7.47388 14.9608
ltoes -17.9523
1079
root 2.13728 17.7774 22.5961 3.28071 -9.87008 3.98621
lowerback 17.9517 -0.154013 12.7337
upperback 2.22909 3.01549 9.63929
thorax -7.58004 1.1911 2.64398
lowerneck -19.5067 2.72077 11.3925
upperneck 15.39 4.96818 -22.445
head 9.01435 0.793521 -9.26486
rclavicle 0 -7.95139e-014
rhumerus -23.0888 -52.3939 0.764883
rradius 24.3539
rwrist 11.5126
rhand -17.7185 7.55549
rfingers 7.12502
rthumb 8.54196 -22.2517
lclavicle 0 -7.95139e-014
lhumerus -18.8151 10.9827 1.62713
lradius 32.96
lwrist 30.9385
lhand -23.2958 0.743816
lfingers 7.12502
lthumb 3.15744 30.7002
rfemur -3.48293 4.06267 7.989
rtibia 34.0149
rfoot -16.0322 -13.5011
rtoes -17.0872
lfemur -28.5755 2.97499 -18.5067
ltibia 21.6089
lfoot -7.28976 15.2572
ltoes -18.0308
1080
root 2.17071 17.7575 22.6897 3.24515 -9.86943 3.69696
lowerback 17.8901 -0.180028 12.4614
upperback 2.21209 2.92105 9.64269
thorax -7.58274 1.1547 2.81844
lowerneck -19.41 2.77347 11.5204
upperneck 15.4028 5.00377 -22.3893
head 9.00715 0.828527 -9.26072
rclavicle -2.3059e-014 9.54166e-015
rhumerus -22.8604 -52.4876 0.861154
rradius 24.3219
rwrist 11.721
rhand -17.7183 7.55279
rfingers 7.12502
rthumb 8.54221 -22.2544
lclavicle -2.3059e-014 9.54166e-015
lhumerus -19.0352 11.2925 1.79075
lradius 33.2682
lwrist 31.3603
lhand -23.6463 0.695143
lfingers 7.12502
lthumb 2.8189 30.6563
rfemur -3.09081 3.84965 8.06807
rtibia 33.9887
rfoot -15.9807 -13.1592
rtoes -17.4301
lfemur -28.4422 2.77039 -18.2492
ltibia 21.5652
lfoot -6.8968 15.4968
ltoes -18.1077
1081
root 2.20478 17.7371 22.7847 3.19788 -9.85101 3.3971
lowerback 17.8391 -0.198589 12.2178
upperback 2.18753 2.84495 9.63995
thorax -7.59644 1.12551 2.96656
lowerneck -19.3506 2.8058 11.6115
upperneck 15.4702 5.02064 -22.3004
head 9.01914 0.851817 -9.24328
rclavicle -3.10104e-014 -1.62208e-013
rhumerus -22.7278 -52.5023 1.01649
rradius 24.3099
rwrist 11.8231
rhand -17.7376 7.47836
rfingers 7.12502
rthumb 8.52353 -22.3296
lclavicle -3.10104e-014 -1.62208e-013
lhumerus -19.1603 11.4924 1.9761
lradius 33.535
lwrist 31.7602
lhand -23.9538 0.628732
lfingers 7.12502
lthumb 2.52194 30.5936
rfemur -2.6806 3.65523 8.16065
rtibia 33.9729
rfoot -15.9166 -12.8338
rtoes -17.7811
lfemur -28.3069 2.64958 -18.0348
ltibia 21.6686
lfoot -6.28617 15.6334
ltoes -18.1681
1082
root 2.23972 17.7169 22.8812 3.13831 -9.81481 3.04601
lowerback 17.805 -0.224264 12.0284
upperback 2.16491 2.77361 9.64563
thorax -7.61448 1.09688 3.09377
lowerneck -19.3343 2.83229 11.6803
upperneck 15.5751 5.03386 -22.1884
head 9.04969 0.870769 -9.21633
rclavicle 1.59028e-015 5.725e-014
rhumerus -22.6126 -52.4612 1.14389
rradius 24.3176
rwrist 11.7974
rhand -17.7937 7.3672
rfingers 7.12502
rthumb 8.46943 -22.443
lclavicle 1.59028e-015 5.725e-014
lhumerus -19.2546 11.6516 2.16607
lradius 33.8201
lwrist 32.1856
lhand -24.2657 0.524343
lfingers 7.12502
lthumb 2.22073 30.4925
rfemur -2.23783 3.49761 8.31614
rtibia 33.9528
rfoot -15.8224 -12.5365
rtoes -18.1361
lfemur -28.1781 2.61611 -17.8155
ltibia 21.9569
lfoot -5.50585 15.6553
ltoes -18.1821
1083
root 2.27614 17.698 22.9788 3.07403 -9.75011 2.68238
lowerback 17.8042 -0.184785 12.0975
upperback 2.10406 2.84267 9.56899
thorax -7.67204 1.12352 2.95544
lowerneck -19.4386 2.71691 11.5275
upperneck 15.8183 4.88457 -21.8968
head 9.10409 0.805267 -9.10895
rclavicle 2.14687e-014 2.8625e-014
rhumerus -23.1528 -52.1885 1.79836
rradius 24.4299
rwrist 11.5391
rhand -17.856 7.22615
rfingers 7.12502
rthumb 8.40932 -22.5864
lclavicle 2.14687e-014 2.8625e-014
lhumerus -18.7542 10.9576 2.4667
lradius 33.5143
lwrist 32.0648
lhand -24.0104 0.549843
lfingers 7.12502
lthumb 2.46735 30.5153
rfemur -1.77747 3.35783 8.4867
rtibia 33.9311
rfoot -15.6864 -12.257
rtoes -18.5064
lfemur -28.0802 2.65113 -17.6292
ltibia 22.4356
lfoot -4.63895 15.5891
ltoes -18.1347
1084
root 2.31351 17.6814 23.0766 3.00902 -9.66501 2.28558
lowerback 17.8066 -0.145958 12.2413
upperback 2.06245 2.92171 9.48232
thorax -7.70478 1.15338 2.76235
lowerneck -19.6275 2.60028 11.3524
upperneck 16.065 4.73134 -21.5926
head 9.17531 0.73374 -8.99542
rclavicle 9.54166e-015 9.22361e-014
rhumerus -23.8051 -52.0763 2.51641
rradius 24.5383
rwrist 11.357
rhand -17.9412 7.12912
rfingers 7.12502
rthumb 8.32708 -22.6867
lclavicle 9.54166e-015 9.22361e-014
lhumerus -18.1863 10.167 2.77821
lradius 33.2047
lwrist 32.0522
lhand -23.7932 0.538178
lfingers 7.12502
lthumb 2.67709 30.5011
rfemur -1.31228 3.26525 8.70704
rtibia 33.9114
rfoot -15.4891 -12.0201
rtoes -18.8688
lfemur -28.0266 2.73642 -17.4312
ltibia 23.076
lfoot -3.74165 15.4854
ltoes -18.025
